<svg version="1.1"
     baseProfile="full"
     width="136" height="23"
     xmlns="http://www.w3.org/2000/svg" class="bumps">

    <path d="
        M3 13,
        v4,
        h116,
        v-4,
        h-3,
        v-1,
        h-37,
        v1,
        h-40,
        v-1,
        h-35,
        v1,
        z
        " fill="red" visibility="hidden"
    />

    <path d="
        M3 13,
        v5,
        h128,
        v-6,
        h-28,
        v1,
        h-60,
        v-1,
        h-40,
        v1,
        z
        " fill="red" visibility="hidden"
    />

    <!-- Две кочка -->
    <path d="
        M0 16,
        v-6,
        h4,
        v-3,
        h6,
        v-3,
        h3,
        v-4,
        h19,
        v7,
        h7,
        v3,
        h6,
        v3,
        h29,
        v-3,
        h6,
        v-3,
        h7,
        v-3,
        h3,
        v-4,
        h19,
        v7,
        h7,
        v3,
        h6,
        v6,
        h-3,
        v-3,
        h-3,
        v-3,
        h-7,
        v-3,
        h-3,
        v-3,
        h-13,
        v3,
        h-3,
        v3,
        h-10,
        v3,
        h-3,
        v3,
        h-35,
        v-3,
        h-3,
        v-3,
        h-7,
        v-3,
        h-3,
        v-3,
        h-13,
        v3,
        h-3,
        v3,
        h-6,
        v3,
        h-3,
        v3,
        z
        " visibility="hidden"
    />

    <!-- Кочка с ямкой -->
    <path d="
        M0 16,
        v-6,
        h3,
        v-3,
        h7,
        v-3,
        h3,
        v-4,
        h19,
        v4,
        h3,
        v3,
        h4,
        v3,
        h6,
        v3,
        h58,
        v3,
        h3,
        v4,
        h22,
        v-4,
        h3,
        v-3,
        h4,
        v7,
        h-4,
        v3,
        h-28,
        v-3,
        h-4,
        v-4,
        h-57,
        v-3,
        h-3,
        v-3,
        h-7,
        v-3,
        h-3,
        v-3,
        h-13,
        v3,
        h-3,
        v3,
        h-6,
        v3,
        h-4,
        v3,
        z
        " visibility="hidden"
    />

 </svg>