<svg version="1.1"
     baseProfile="full"
     width="150" height="105"
     xmlns="http://www.w3.org/2000/svg" class="three-cactus cactuses">

    <path d="
        M50 16,
        h4,
        v-3,
        h6,
        v3,
        h3,
        v22,
        h3,
        v-35,
        h4,
        v-3,
        h9,
        v3,
        h3,
        v51,
        h7,
        v-38,
        h3,
        v-3,
        h3,
        v3,
        h3,
        v41,
        h-3,
        v4,
        h-3,
        v3,
        h-10,
        v41,
        h-16,
        v-54,
        h-9,
        v-3,
        h-3,
        v-3,
        h-4,
        z

        M100 13,
        h3,
        v-4,
        h3,
        v4,
        h3,
        v35,
        h7,
        v-45,
        h3,
        v-3,
        h9,
        v3,
        h4,
        v51,
        h6,
        v-38,
        h3,
        v-3,
        h3,
        v3,
        h4,
        v41,
        h-4,
        v4,
        h-3,
        v3,
        h-9,
        v41,
        h-16,
        v-48,
        h-10,
        v-3,
        h-3,
        v-3,
        h-3,
        z

        M 0 13,
        h3,
        v-4,
        h4,
        v4,
        h3,
        v51,
        h6,
        v-61,
        h3,
        v-3,
        h10,
        v3,
        h3,
        v67,
        h7,
        v-45,
        h3,
        v-3,
        h3,
        v3,
        h3,
        v48,
        h-3,
        v4,
        h-3,
        v3,
        h-10,
        v25,
        h-16,
        v-32,
        h-6,
        v-3,
        h-3,
        v-3,
        h-4,
        v-3,
        h-3,
        z
        "
    />

 </svg>